<?xml version="1.0"?>
<svg xmlns="http://www.w3.org/2000/svg" viewBox="0 0 50 50">
    <path d="M 16.597656 4.0117188 C 15.829608 4.0117186 15.497342 4.2002839 14.988281 4.5058594 C 14.479221 4.8114349 13.95906 5.2755257 13.507812 5.9179688 C 12.605317 7.2028548 12 9.1344537 12 12 C 12 13.290156 12.100036 14.649913 12.289062 16.052734 C 10.959514 16.363278 9.715217 16.731056 8.59375 17.166016 C 6.8304494 17.84991 5.3341519 18.67411 4.1679688 19.734375 C 3.0017854 20.79464 2.1271343 22.18763 2.0429688 23.796875 C 1.9729557 25.124925 2.4312552 26.451015 3.1855469 27.394531 C 3.9398386 28.338047 4.8633126 28.981937 5.8925781 29.666016 A 2.0004981 2.0004981 0 1 0 8.1074219 26.333984 C 7.1746874 25.714063 6.5697552 25.220719 6.3105469 24.896484 C 6.0513386 24.57225 6.0111219 24.500764 6.0371094 24.007812 L 6.0371094 24.005859 C 6.0529438 23.703151 6.2136833 23.28236 6.859375 22.695312 C 7.5050667 22.108265 8.5968636 21.453887 10.039062 20.894531 C 10.915809 20.554486 11.930611 20.253119 13.037109 19.990234 C 13.36988 21.365314 13.784664 22.758352 14.269531 24.150391 C 11.359165 29.532095 9.9351555 34.236097 10 38.033203 C 10.03807 40.292941 10.318049 42.809478 12.509766 44.234375 C 13.816889 45.082995 15.361381 45.191604 16.582031 44.953125 C 17.802682 44.714646 18.819672 44.237559 19.763672 43.847656 A 2.0002 2.0002 0 1 0 18.236328 40.152344 C 17.231328 40.567441 16.388506 40.915573 15.816406 41.027344 C 15.24528 41.138925 15.063036 41.121104 14.689453 40.878906 L 14.6875 40.878906 C 14.540433 40.781252 14.029885 39.740536 14 37.966797 C 13.963681 35.840071 14.680993 32.764134 16.308594 29.083984 C 18.877498 34.411164 22.10344 38.897997 25.322266 41.931641 C 26.954689 43.470148 28.578521 44.646874 30.236328 45.347656 C 31.894135 46.048439 33.751161 46.290445 35.386719 45.457031 L 35.496094 45.400391 L 35.599609 45.332031 C 37.147701 44.285738 37.675326 42.570887 37.884766 40.876953 C 38.094205 39.183019 37.978816 37.313572 37.707031 35.363281 C 37.163456 31.462699 35.960776 27.270522 34.876953 24.3125 A 2.0002 2.0002 0 1 0 31.123047 25.6875 C 32.111224 28.384478 33.261419 32.438098 33.746094 35.916016 C 33.988431 37.654975 34.055545 39.258215 33.916016 40.386719 C 33.788988 41.414107 33.510826 41.761387 33.408203 41.871094 C 33.136166 41.972899 32.710032 42.048942 31.794922 41.662109 C 30.787822 41.236392 29.460608 40.333523 28.066406 39.019531 C 25.278002 36.391547 22.197352 32.161907 19.804688 27.140625 C 19.388074 26.266301 19.015403 25.374432 18.664062 24.478516 C 19.145628 23.644861 19.66509 22.793442 20.228516 21.923828 L 20.230469 21.921875 C 20.891305 20.904461 21.572814 19.930889 22.265625 19.005859 C 23.185177 19.007305 24.123859 19.029388 25.087891 19.080078 C 30.654901 19.371963 35.726731 20.547732 39.214844 22.068359 C 40.9589 22.828673 42.297958 23.683205 43.082031 24.435547 C 43.866104 25.187888 44.017282 25.699473 44.001953 25.992188 C 43.964583 26.685101 43.225425 27.556438 41.4375 28.080078 A 2.0006266 2.0006266 0 1 0 42.5625 31.919922 C 45.321379 31.111912 47.842508 29.158035 47.998047 26.201172 C 48.093217 24.383886 47.142334 22.787362 45.851562 21.548828 C 44.560745 20.310293 42.853319 19.290077 40.8125 18.400391 C 36.782949 16.643724 31.424036 15.434462 25.523438 15.101562 C 26.466021 14.090327 27.404133 13.177432 28.3125 12.394531 C 30.950659 10.120761 33.42656 8.9933628 34.572266 8.9492188 C 34.995292 8.9333628 35.208512 9.0102698 35.373047 9.1171875 C 35.727257 9.3472853 35.821463 9.5112727 35.863281 9.9433594 C 35.905101 10.375446 35.776671 11.10997 35.263672 12.007812 A 2.0002 2.0002 0 1 0 38.736328 13.992188 C 39.556282 12.557077 39.990385 11.051554 39.845703 9.5566406 C 39.701022 8.0617273 38.859525 6.6125741 37.552734 5.7636719 C 36.609269 5.1505896 35.494802 4.9129814 34.423828 4.953125 L 34.421875 4.953125 C 31.532066 5.0627014 28.696617 6.7815743 25.701172 9.3632812 C 23.896346 10.91882 22.062661 12.836101 20.287109 15.037109 C 18.884834 15.087637 17.532487 15.192218 16.240234 15.351562 C 16.08329 14.166926 16 13.038722 16 12 C 16 9.6985463 16.487745 8.6346609 16.78125 8.2167969 C 16.85463 8.1123309 16.86788 8.1194219 16.914062 8.0761719 C 18.093673 8.1492369 18.531918 8.5230304 19.701172 9.5214844 A 2.0004672 2.0004672 0 1 0 22.298828 6.4785156 C 21.018927 5.385578 19.256168 4.0117187 16.597656 4.0117188 z M 17.189453 19.279297 C 17.14335 19.348827 17.096712 19.41642 17.050781 19.486328 C 17.034996 19.424126 17.013485 19.360907 16.998047 19.298828 C 17.060601 19.291467 17.126533 19.286402 17.189453 19.279297 z M 25 22 C 23.343 22 22 23.343 22 25 C 22 26.657 23.343 28 25 28 C 26.657 28 28 26.657 28 25 C 28 23.343 26.657 22 25 22 z"/>
</svg>
